Coordinates
version=1
nRows=14
nColumns=40
inDegrees=yes

Units are S.I. units (second, meters, Newtons, ...)
Angles are in degrees.

endheader
time	pelvis_tilt	pelvis_list	pelvis_rotation	pelvis_tx	pelvis_ty	pelvis_tz	hip_flexion_r	hip_adduction_r	hip_rotation_r	knee_angle_r	knee_angle_r_beta	ankle_angle_r	subtalar_angle_r	mtp_angle_r	hip_flexion_l	hip_adduction_l	hip_rotation_l	knee_angle_l	knee_angle_l_beta	ankle_angle_l	subtalar_angle_l	mtp_angle_l	lumbar_extension	lumbar_bending	lumbar_rotation	arm_flex_r	arm_add_r	arm_rot_r	elbow_flex_r	pro_sup_r	wrist_flex_r	wrist_dev_r	arm_flex_l	arm_add_l	arm_rot_l	elbow_flex_l	pro_sup_l	wrist_flex_l	wrist_dev_l
     11.67528571	     -6.09473937	     -4.07650062	     -5.63969296	      0.95749261	      0.93430800	      0.42362920	     36.93070749	     -1.58806548	     -4.28186049	     61.84178514	     61.84178514	     -1.17742784	    -12.05615299	     -1.40726572	     10.55448236	     -3.10659423	    -10.75270397	     16.10752630	     16.10752630	     13.65421444	    -12.86015655	      1.45054047	    -10.52437503	      7.88627477	      3.16953544	     -6.74042792	    -12.02125278	    -10.23143376	     27.36188501	     46.69373736	      0.00000000	      0.00000000	      7.43746942	    -16.37495536	     -9.74314047	     87.64820852	     47.71708014	      0.00000000	      0.00000000
     11.68807143	     -6.13371476	     -4.16289352	     -5.82821401	      0.95670344	      0.93413910	      0.42392208	     37.31815856	     -1.34011079	     -4.87477570	     58.74551612	     58.74551612	     -0.90577151	    -11.80159971	     -1.16382666	      9.90319654	     -3.16445599	    -10.93787449	     15.78431950	     15.78431950	     13.90078887	    -12.73279953	      1.27794219	    -10.59913008	      7.97104167	      2.95768598	     -7.47856863	    -11.84673164	    -10.34389794	     27.18883356	     46.69970900	      0.00000000	      0.00000000	      8.17109365	    -16.59831998	    -10.10425071	     88.47296919	     47.76420543	      0.00000000	      0.00000000
     11.70085714	     -6.14910619	     -4.23268995	     -6.02407773	      0.95606543	      0.93384371	      0.42434770	     37.47124247	     -1.10328325	     -5.50390674	     55.23242663	     55.23242663	     -0.66205794	    -11.40623821	     -0.95920291	      9.20112841	     -3.21307698	    -11.17929389	     15.43589636	     15.43589636	     14.16126527	    -12.49861531	      1.03928324	    -10.72685726	      7.99563782	      2.86503954	     -8.17394852	    -11.66335640	    -10.49650766	     27.12133753	     46.70415597	      0.00000000	      0.00000000	      8.84278797	    -16.71879830	    -10.41226947	     89.50654181	     47.81217329	      0.00000000	      0.00000000
     11.71364286	     -6.21186565	     -4.23257864	     -6.20058199	      0.95547978	      0.93330083	      0.42485808	     37.47052256	     -0.90899910	     -6.13319280	     51.32146605	     51.32146605	     -0.42340441	    -10.79330874	     -0.75219283	      8.59509083	     -3.19799589	    -11.42914954	     15.16243107	     15.16243107	     14.44768017	    -12.26496398	      0.77369899	    -10.75504093	      7.94444923	      2.72742803	     -8.73358044	    -11.45195547	    -10.62816552	     27.12902523	     46.70529294	      0.00000000	      0.00000000	      9.47586143	    -16.89895950	    -10.64294197	     90.35029531	     47.85000907	      0.00000000	      0.00000000
     11.72642857	     -6.25529603	     -4.22129541	     -6.35198865	      0.95508860	      0.93267721	      0.42543719	     37.20529988	     -0.70314519	     -6.77880506	     47.01529994	     47.01529994	     -0.19426229	     -9.90918026	     -0.54937527	      7.96215378	     -3.17480530	    -11.67692843	     14.89848177	     14.89848177	     14.74185350	    -11.97953141	      0.48388056	    -10.79758356	      7.87575358	      2.60736541	     -9.17886069	    -11.26197372	    -10.75151686	     27.18463715	     46.70489748	      0.00000000	      0.00000000	     10.05657159	    -17.01825318	    -10.78672663	     91.07491454	     47.87935443	      0.00000000	      0.00000000
     11.73921429	     -6.21681073	     -4.17444983	     -6.50620488	      0.95494639	      0.93203027	      0.42609698	     36.61581287	     -0.51501011	     -7.47815014	     42.36825059	     42.36825059	     -0.04489425	     -8.66376913	     -0.49310426	      7.21435699	     -3.11468471	    -12.02503944	     14.61917112	     14.61917112	     15.03931978	    -11.59199903	      0.09819169	    -10.91140593	      7.74252816	      2.51204903	     -9.53046272	    -11.08676647	    -10.92260034	     27.30796651	     46.70531017	      0.00000000	      0.00000000	     10.58908879	    -17.05308979	    -10.83882701	     91.72238909	     47.90657363	      0.00000000	      0.00000000
     11.75200000	     -6.23237002	     -4.10647641	     -6.60876216	      0.95497670	      0.93118101	      0.42684101	     35.85702282	     -0.29657922	     -8.18949962	     37.44841240	     37.44841240	      0.03586255	     -7.08347913	     -0.29230079	      6.52820418	     -3.03705380	    -12.31393325	     14.35249142	     14.35249142	     15.34896266	    -11.18024272	     -0.29298542	    -10.92388637	      7.59845058	      2.37508959	     -9.75405527	    -10.90411492	    -11.04978176	     27.43937056	     46.70328862	      0.00000000	      0.00000000	     11.09403561	    -17.10282522	    -10.78432857	     92.08082407	     47.92074218	      0.00000000	      0.00000000
     11.76478571	     -6.18688952	     -3.99840050	     -6.67804533	      0.95535239	      0.93023654	      0.42767369	     34.82149136	     -0.09916501	     -8.97160724	     32.37944617	     32.37944617	      0.04419806	     -5.10057109	      0.05248655	      5.74844758	     -2.91733273	    -12.66865898	     14.06906484	     14.06906484	     15.67719052	    -10.66846837	     -0.73967276	    -10.90028309	      7.39472149	      2.26902470	     -9.85869537	    -10.72438647	    -11.15272790	     27.59929912	     46.69870762	      0.00000000	      0.00000000	     11.59495128	    -17.12334478	    -10.60036534	     92.20132494	     47.92317037	      0.00000000	      0.00000000
     11.77757143	     -6.17413823	     -3.86169515	     -6.68964992	      0.95597350	      0.92906222	      0.42857027	     33.68523866	      0.12609313	     -9.71300092	     27.34428690	     27.34428690	     -0.06677077	     -2.93319875	      0.78491160	      4.98875323	     -2.76446850	    -12.95726155	     13.77179165	     13.77179165	     16.02747579	    -10.17332322	     -1.16933181	    -10.78147828	      7.16938265	      2.12484232	     -9.85486134	    -10.53945116	    -11.19513736	     27.74691768	     46.69159458	      0.00000000	      0.00000000	     12.04081755	    -17.12448137	    -10.31811780	     92.12228622	     47.91373656	      0.00000000	      0.00000000
     11.79035714	     -6.00559587	     -3.70080731	     -6.64788462	      0.95699616	      0.92787989	      0.42950087	     32.32403473	      0.28012915	    -10.61416113	     22.61854979	     22.61854979	     -0.15703820	     -0.27105014	      1.87327925	      4.01250495	     -2.57981948	    -13.33594867	     13.42841231	     13.42841231	     16.40549131	     -9.40879634	     -1.74638729	    -10.80852655	      6.91438646	      2.03870774	     -9.77796995	    -10.39936661	    -11.21093490	     27.92413538	     46.68038648	      0.00000000	      0.00000000	     12.52670936	    -17.08550384	     -9.80501559	     91.67708495	     47.88648758	      0.00000000	      0.00000000
     11.80314286	     -5.94726171	     -3.52120016	     -6.53629576	      0.95825945	      0.92633431	      0.43051801	     31.12729307	      0.45768048	    -11.34695790	     18.41763926	     18.41763926	     -0.35513213	      2.00230036	      3.27714233	      3.15970119	     -2.38302509	    -13.55051552	     13.10236386	     13.10236386	     16.78478261	     -8.79597286	     -2.22090965	    -10.59264018	      6.65186905	      1.87543268	     -9.62404659	    -10.26159664	    -11.17991905	     28.09356100	     46.66798533	      0.00000000	      0.00000000	     12.86495639	    -17.03498080	     -9.29025677	     91.17083005	     47.85411001	      0.00000000	      0.00000000
     11.81592857	     -5.75932943	     -3.31499987	     -6.39423064	      0.95972581	      0.92482159	      0.43147919	     30.15025383	      0.38131733	    -12.62027283	     15.50560420	     15.50560420	      0.45036095	      5.15196932	      7.26709858	      2.15778793	     -2.20977385	    -14.18586115	     12.80649314	     12.80649314	     17.21631993	     -7.39605413	     -3.31125292	    -10.53278259	      6.39495193	      2.39558483	     -9.78130984	    -10.18994483	    -11.00966871	     28.45768613	     46.61934172	      0.00000000	      0.00000000	     13.98732324	    -16.85114281	     -7.51667144	     89.19968572	     47.75210550	      0.00000000	      0.00000000
     11.82871429	     -5.70928136	     -3.20108202	     -6.19919060	      0.96139013	      0.92309538	      0.43266989	     29.22758702	      0.58739665	    -13.02283044	     12.85682444	     12.85682444	      0.17510236	      6.42411582	      8.49057123	      1.31605095	     -2.08523397	    -14.15624450	     12.53354805	     12.53354805	     17.62998291	     -7.06955770	     -3.54593016	    -10.28109772	      6.21419700	      2.02745402	     -9.40244120	    -10.12722880	    -10.97754762	     28.76311695	     46.60276207	      0.00000000	      0.00000000	     14.01968821	    -16.75570391	     -7.04618172	     88.54822555	     47.71825019	      0.00000000	      0.00000000
     11.84150000	     -5.57348032	     -3.12456396	     -5.97500354	      0.96325307	      0.92152928	      0.43388563	     28.47564801	      0.64595797	    -13.77327474	     11.31785668	     11.31785668	      0.22713697	      7.90178889	     10.00749150	      0.35168376	     -2.03733133	    -14.35441708	     12.25612211	     12.25612211	     18.12124514	     -6.22699595	     -3.87498161	    -10.07436608	      6.09136619	      1.99565667	     -9.02721765	    -10.13856746	    -10.77881252	     29.02428847	     46.57065575	      0.00000000	      0.00000000	     14.42295546	    -16.52590508	     -6.07614747	     86.88717649	     47.64754782	      0.00000000	      0.00000000
